<?xml version="1.0" ?><svg enable-background="new 0 0 64 64" height="64px" version="1.1" viewBox="0 0 64 64" width="64px" xml:space="preserve" xmlns="http://www.w3.org/2000/svg" xmlns:xlink="http://www.w3.org/1999/xlink"><g id="Layer_1"><g><circle cx="32" cy="32" fill="#4F5D73" r="32"/></g><g opacity="0.2"><g><circle cx="32" cy="34" fill="#231F20" r="22"/></g></g><g><g><path d="M32,52c-11.028,0-20-8.972-20-20s8.972-20,20-20s20,8.972,20,20S43.028,52,32,52z" fill="#C75C5C"/></g><g><path d="M32,14c9.925,0,18,8.075,18,18s-8.075,18-18,18s-18-8.075-18-18S22.075,14,32,14 M32,10     c-12.15,0-22,9.85-22,22s9.85,22,22,22s22-9.85,22-22S44.15,10,32,10L32,10z" fill="#FFFFFF"/></g></g><g><path d="M32,22c5.514,0,10,4.486,10,10s-4.486,10-10,10s-10-4.486-10-10S26.486,22,32,22 M32,18    c-7.732,0-14,6.268-14,14s6.268,14,14,14s14-6.268,14-14S39.732,18,32,18L32,18z" fill="#FFFFFF"/></g><g><circle cx="32" cy="32" fill="#FFFFFF" r="5"/></g></g><g id="Layer_2"/></svg>