<?xml version="1.0" encoding="UTF-8" standalone="no" ?>
<!DOCTYPE svg PUBLIC "-//W3C//DTD SVG 1.1//EN" "http://www.w3.org/Graphics/SVG/1.1/DTD/svg11.dtd">
<svg xmlns="http://www.w3.org/2000/svg" xmlns:xlink="http://www.w3.org/1999/xlink" version="1.1" width="500" height="500" viewBox="0 0 500 500" xml:space="preserve">
<desc>Created with Fabric.js 4.6.0</desc>
<defs>
</defs>
<g transform="matrix(0.74 0 0 0.74 243.71 268.9)" id="QoxEgzVxcq2i5mNioPA6K"  >
<path style="stroke: none; stroke-width: 1; stroke-dasharray: none; stroke-linecap: butt; stroke-dashoffset: 0; stroke-linejoin: miter; stroke-miterlimit: 4; fill: rgb(255,238,173); fill-rule: nonzero; opacity: 1;" vector-effect="non-scaling-stroke"  transform=" translate(-275.5, -171.55)" d="M 0 343.1 L 0 0 L 551 0 L 551 343.1 z" stroke-linecap="round" />
</g>
<g transform="matrix(0.74 0 0 0.74 104.47 215.13)" id="4tERog9B_jaObxkuIkbkf"  >
<path style="stroke: rgb(0,0,0); stroke-width: 1; stroke-dasharray: none; stroke-linecap: butt; stroke-dashoffset: 0; stroke-linejoin: miter; stroke-miterlimit: 4; fill: rgb(255,255,255); fill-rule: nonzero; opacity: 1;" vector-effect="non-scaling-stroke"  transform=" translate(-50.45, -32.8)" d="M 0 65.6 L 0 0 L 100.9 0 L 100.9 65.6 z" stroke-linecap="round" />
</g>
<g transform="matrix(0.74 0 0 0.74 197.27 215.13)" id="5Xsv2yETN825_uKCU_VZf"  >
<path style="stroke: rgb(0,0,0); stroke-width: 1; stroke-dasharray: none; stroke-linecap: butt; stroke-dashoffset: 0; stroke-linejoin: miter; stroke-miterlimit: 4; fill: rgb(255,255,255); fill-rule: nonzero; opacity: 1;" vector-effect="non-scaling-stroke"  transform=" translate(-50.45, -32.8)" d="M 0 65.6 L 0 0 L 100.9 0 L 100.9 65.6 z" stroke-linecap="round" />
</g>
<g transform="matrix(0.74 0 0 0.74 289.26 215.13)" id="lu4mNyS5I2tQBgo8lZY7t"  >
<path style="stroke: rgb(0,0,0); stroke-width: 1; stroke-dasharray: none; stroke-linecap: butt; stroke-dashoffset: 0; stroke-linejoin: miter; stroke-miterlimit: 4; fill: rgb(255,255,255); fill-rule: nonzero; opacity: 1;" vector-effect="non-scaling-stroke"  transform=" translate(-50.45, -32.8)" d="M 0 65.6 L 0 0 L 100.9 0 L 100.9 65.6 z" stroke-linecap="round" />
</g>
<g transform="matrix(0.74 0 0 0.74 382.95 215.1)" id="lH17LPxhSyVqIoheek7mT"  >
<path style="stroke: rgb(0,0,0); stroke-width: 1; stroke-dasharray: none; stroke-linecap: butt; stroke-dashoffset: 0; stroke-linejoin: miter; stroke-miterlimit: 4; fill: rgb(255,255,255); fill-rule: nonzero; opacity: 1;" vector-effect="non-scaling-stroke"  transform=" translate(-50.45, -32.8)" d="M 0 65.6 L 0 0 L 100.9 0 L 100.9 65.6 z" stroke-linecap="round" />
</g>
<g transform="matrix(0.74 0 0 0.74 104.47 283.81)" id="5CwlftR0bZjuQD0yohGHx"  >
<path style="stroke: rgb(0,0,0); stroke-width: 1; stroke-dasharray: none; stroke-linecap: butt; stroke-dashoffset: 0; stroke-linejoin: miter; stroke-miterlimit: 4; fill: rgb(255,255,255); fill-rule: nonzero; opacity: 1;" vector-effect="non-scaling-stroke"  transform=" translate(-50.45, -32.8)" d="M 0 65.6 L 0 0 L 100.9 0 L 100.9 65.6 z" stroke-linecap="round" />
</g>
<g transform="matrix(0.74 0 0 0.74 197.27 283.81)" id="grIt_ZJJfojfPuJrIBmSF"  >
<path style="stroke: rgb(0,0,0); stroke-width: 1; stroke-dasharray: none; stroke-linecap: butt; stroke-dashoffset: 0; stroke-linejoin: miter; stroke-miterlimit: 4; fill: rgb(255,255,255); fill-rule: nonzero; opacity: 1;" vector-effect="non-scaling-stroke"  transform=" translate(-50.45, -32.8)" d="M 0 65.6 L 0 0 L 100.9 0 L 100.9 65.6 z" stroke-linecap="round" />
</g>
<g transform="matrix(0.74 0 0 0.74 290.08 283.81)" id="O8r0sbvCejGaCOy84dV-w"  >
<path style="stroke: rgb(0,0,0); stroke-width: 1; stroke-dasharray: none; stroke-linecap: butt; stroke-dashoffset: 0; stroke-linejoin: miter; stroke-miterlimit: 4; fill: rgb(255,255,255); fill-rule: nonzero; opacity: 1;" vector-effect="non-scaling-stroke"  transform=" translate(-50.45, -32.8)" d="M 0 65.6 L 0 0 L 100.9 0 L 100.9 65.6 z" stroke-linecap="round" />
</g>
<g transform="matrix(0.74 0 0 0.74 382.88 283.81)" id="h77VILJXof3FtS28E8eDe"  >
<path style="stroke: rgb(0,0,0); stroke-width: 1; stroke-dasharray: none; stroke-linecap: butt; stroke-dashoffset: 0; stroke-linejoin: miter; stroke-miterlimit: 4; fill: rgb(255,255,255); fill-rule: nonzero; opacity: 1;" vector-effect="non-scaling-stroke"  transform=" translate(-50.45, -32.8)" d="M 0 65.6 L 0 0 L 100.9 0 L 100.9 65.6 z" stroke-linecap="round" />
</g>
<g transform="matrix(0.74 0 0 0.74 104.47 352.56)" id="KDj-33xtyzRf4znpke4_l"  >
<path style="stroke: rgb(0,0,0); stroke-width: 1; stroke-dasharray: none; stroke-linecap: butt; stroke-dashoffset: 0; stroke-linejoin: miter; stroke-miterlimit: 4; fill: rgb(255,255,255); fill-rule: nonzero; opacity: 1;" vector-effect="non-scaling-stroke"  transform=" translate(-50.45, -32.8)" d="M 0 65.6 L 0 0 L 100.9 0 L 100.9 65.6 z" stroke-linecap="round" />
</g>
<g transform="matrix(0.74 0 0 0.74 197.27 352.56)" id="LiZfucejJCyOvRhoSaDf1"  >
<path style="stroke: rgb(0,0,0); stroke-width: 1; stroke-dasharray: none; stroke-linecap: butt; stroke-dashoffset: 0; stroke-linejoin: miter; stroke-miterlimit: 4; fill: rgb(255,255,255); fill-rule: nonzero; opacity: 1;" vector-effect="non-scaling-stroke"  transform=" translate(-50.45, -32.8)" d="M 0 65.6 L 0 0 L 100.9 0 L 100.9 65.6 z" stroke-linecap="round" />
</g>
<g transform="matrix(0.74 0 0 0.74 290.08 352.56)" id="Y6plIj1boOPQUt_VeF4EP"  >
<path style="stroke: rgb(0,0,0); stroke-width: 1; stroke-dasharray: none; stroke-linecap: butt; stroke-dashoffset: 0; stroke-linejoin: miter; stroke-miterlimit: 4; fill: rgb(255,255,255); fill-rule: nonzero; opacity: 1;" vector-effect="non-scaling-stroke"  transform=" translate(-50.45, -32.8)" d="M 0 65.6 L 0 0 L 100.9 0 L 100.9 65.6 z" stroke-linecap="round" />
</g>
<g transform="matrix(0.74 0 0 0.74 382.88 352.56)" id="sSvSL3YgvxXxaCshJ-abr"  >
<path style="stroke: rgb(0,0,0); stroke-width: 1; stroke-dasharray: none; stroke-linecap: butt; stroke-dashoffset: 0; stroke-linejoin: miter; stroke-miterlimit: 4; fill: rgb(255,255,255); fill-rule: nonzero; opacity: 1;" vector-effect="non-scaling-stroke"  transform=" translate(-50.45, -32.8)" d="M 0 65.6 L 0 0 L 100.9 0 L 100.9 65.6 z" stroke-linecap="round" />
</g>
<g transform="matrix(0.74 0 0 0.74 146.62 160.59)" id="-vePWg99-l21JmuzQocz6"  >
<path style="stroke: none; stroke-width: 1; stroke-dasharray: none; stroke-linecap: butt; stroke-dashoffset: 0; stroke-linejoin: miter; stroke-miterlimit: 4; fill: rgb(255,255,255); fill-rule: nonzero; opacity: 1;" vector-effect="non-scaling-stroke"  transform=" translate(-15.1, -15.1)" d="M 0 15.1 C 0 6.7605 6.7605 0 15.1 0 C 23.4395 0 30.2 6.7605 30.2 15.1 C 30.2 23.4395 23.4395 30.2 15.1 30.2 C 6.7605 30.2 0 23.4395 0 15.1 z" stroke-linecap="round" />
</g>
<g transform="matrix(0.74 0 0 0.74 331.85 160.59)" id="pb4_R_WrEbiezhyqf158b"  >
<path style="stroke: none; stroke-width: 1; stroke-dasharray: none; stroke-linecap: butt; stroke-dashoffset: 0; stroke-linejoin: miter; stroke-miterlimit: 4; fill: rgb(255,255,255); fill-rule: nonzero; opacity: 1;" vector-effect="non-scaling-stroke"  transform=" translate(-15.1, -15.1)" d="M 0 15.1 C 0 6.7605 6.7605 0 15.1 0 C 23.4395 0 30.2 6.7605 30.2 15.1 C 30.2 23.4395 23.4395 30.2 15.1 30.2 C 6.7605 30.2 0 23.4395 0 15.1 z" stroke-linecap="round" />
</g>
<g transform="matrix(0.74 0 0 0.74 146.65 137.8)" id="nVoqnQuL0kYtYdNzfSL8W"  >
<path style="stroke: none; stroke-width: 1; stroke-dasharray: none; stroke-linecap: butt; stroke-dashoffset: 0; stroke-linejoin: miter; stroke-miterlimit: 4; fill: rgb(255,173,96); fill-rule: nonzero; opacity: 1;" vector-effect="non-scaling-stroke"  transform=" translate(-6.05, -34.8)" d="M 0 69.6 L 0 0 L 12.1 0 L 12.1 69.6 z" stroke-linecap="round" />
</g>
<g transform="matrix(0.74 0 0 0.74 331.81 137.8)" id="Pg4WPLxBamwNrZJE7uXq3"  >
<path style="stroke: none; stroke-width: 1; stroke-dasharray: none; stroke-linecap: butt; stroke-dashoffset: 0; stroke-linejoin: miter; stroke-miterlimit: 4; fill: rgb(255,173,96); fill-rule: nonzero; opacity: 1;" vector-effect="non-scaling-stroke"  transform=" translate(-6.05, -34.8)" d="M 0 69.6 L 0 0 L 12.1 0 L 12.1 69.6 z" stroke-linecap="round" />
</g>
<g transform="matrix(0.74 0 0 0.74 382.95 215.1)" id="e2JYbcm_qYqfLXExGRHki"  >
<path style="stroke: none; stroke-width: 1; stroke-dasharray: none; stroke-linecap: butt; stroke-dashoffset: 0; stroke-linejoin: miter; stroke-miterlimit: 4; fill: rgb(255,173,96); fill-rule: nonzero; opacity: 1;" vector-effect="non-scaling-stroke"  transform=" translate(-463.65, -139.25)" d="M 486.4 139.3 C 486.4 151.9 476.2 162 463.59999999999997 162 C 450.99999999999994 162 440.9 151.8 440.9 139.2 C 440.9 126.6 451.09999999999997 116.49999999999999 463.7 116.49999999999999 C 471.5 116.49999999999999 478.7 120.49999999999999 482.9 127.09999999999998 C 485.2 130.7 486.4 134.9 486.4 139.3 z" stroke-linecap="round" />
</g>
<g transform="matrix(0.74 0 0 0.74 385.43 213.21)" id="GdZUv2yTAnn-PYz08wDgR"  >
<path style="stroke: none; stroke-width: 1; stroke-dasharray: none; stroke-linecap: butt; stroke-dashoffset: 0; stroke-linejoin: miter; stroke-miterlimit: 4; fill: rgb(255,255,255); fill-rule: nonzero; opacity: 1;" vector-effect="non-scaling-stroke"  transform=" translate(-467, -136.7)" d="M 482.9 127.1 L 460.4 149.6 C 459 147.4 451.09999999999997 137.29999999999998 451.09999999999997 137.29999999999998 C 452.09999999999997 136.29999999999998 453.2 135.29999999999998 454.29999999999995 134.49999999999997 L 460.79999999999995 143.19999999999996 L 480.19999999999993 123.79999999999995 C 481.2 124.7 482.1 125.9 482.9 127.1 z" stroke-linecap="round" />
</g>
<g transform="matrix(0.74 0 0 0.74 197.35 283.77)" id="2bz78sCDd_FNiu0kn_azd"  >
<path style="stroke: none; stroke-width: 1; stroke-dasharray: none; stroke-linecap: butt; stroke-dashoffset: 0; stroke-linejoin: miter; stroke-miterlimit: 4; fill: rgb(255,173,96); fill-rule: nonzero; opacity: 1;" vector-effect="non-scaling-stroke"  transform=" translate(-212.85, -232.05)" d="M 235.6 232.1 C 235.6 244.7 225.4 254.79999999999998 212.79999999999998 254.79999999999998 C 200.2 254.79999999999998 190.1 244.6 190.1 231.99999999999997 C 190.1 219.39999999999998 200.29999999999998 209.29999999999998 212.9 209.29999999999998 C 220.70000000000002 209.29999999999998 227.9 213.29999999999998 232.1 219.89999999999998 C 234.4 223.6 235.6 227.8 235.6 232.1 z" stroke-linecap="round" />
</g>
<g transform="matrix(0.74 0 0 0.74 199.83 281.89)" id="1ZZugBMVi_kOPWyi4ppMB"  >
<path style="stroke: none; stroke-width: 1; stroke-dasharray: none; stroke-linecap: butt; stroke-dashoffset: 0; stroke-linejoin: miter; stroke-miterlimit: 4; fill: rgb(255,255,255); fill-rule: nonzero; opacity: 1;" vector-effect="non-scaling-stroke"  transform=" translate(-216.2, -229.5)" d="M 232.1 219.9 L 209.6 242.4 C 208.2 240.20000000000002 200.29999999999998 230.1 200.29999999999998 230.1 C 201.29999999999998 229.1 202.39999999999998 228.1 203.49999999999997 227.29999999999998 L 209.99999999999997 235.99999999999997 L 229.39999999999998 216.59999999999997 C 230.4 217.6 231.3 218.7 232.1 219.9 z" stroke-linecap="round" />
</g>
<g transform="matrix(0.74 0 0 0.74 104.54 283.77)" id="lq1yz9WJgMRWdiaQ6twq-"  >
<path style="stroke: none; stroke-width: 1; stroke-dasharray: none; stroke-linecap: butt; stroke-dashoffset: 0; stroke-linejoin: miter; stroke-miterlimit: 4; fill: rgb(255,173,96); fill-rule: nonzero; opacity: 1;" vector-effect="non-scaling-stroke"  transform=" translate(-87.45, -232.05)" d="M 110.2 232.1 C 110.2 244.7 100 254.79999999999998 87.4 254.79999999999998 C 74.80000000000001 254.79999999999998 64.7 244.6 64.7 231.99999999999997 C 64.7 219.39999999999998 74.9 209.29999999999998 87.5 209.29999999999998 C 95.3 209.29999999999998 102.5 213.29999999999998 106.7 219.89999999999998 C 109 223.6 110.2 227.8 110.2 232.1 z" stroke-linecap="round" />
</g>
<g transform="matrix(0.74 0 0 0.74 107.06 281.85)" id="cJEDivOZkM1AaZPyZ4hNu"  >
<path style="stroke: none; stroke-width: 1; stroke-dasharray: none; stroke-linecap: butt; stroke-dashoffset: 0; stroke-linejoin: miter; stroke-miterlimit: 4; fill: rgb(255,255,255); fill-rule: nonzero; opacity: 1;" vector-effect="non-scaling-stroke"  transform=" translate(-90.85, -229.45)" d="M 106.7 219.9 L 84.2 242.4 C 82.8 240.2 75 230 75 230 C 76 229 77.1 228 78.2 227.2 L 84.7 235.89999999999998 L 104.1 216.49999999999997 C 105.1 217.6 105.9 218.7 106.7 219.9 z" stroke-linecap="round" />
</g>
</svg>