<?xml version="1.0" encoding="UTF-8" standalone="no" ?>
<!DOCTYPE svg PUBLIC "-//W3C//DTD SVG 1.1//EN" "http://www.w3.org/Graphics/SVG/1.1/DTD/svg11.dtd">
<svg xmlns="http://www.w3.org/2000/svg" xmlns:xlink="http://www.w3.org/1999/xlink" version="1.1" width="500" height="500" viewBox="0 0 500 500" xml:space="preserve">
<desc>Created with Fabric.js 4.6.0</desc>
<defs>
</defs>
<g transform="matrix(1 0 0 1 123.43 209.77)" id="gcSTCM7N_fo6QlJO-aa2T"  >
<path style="stroke: none; stroke-width: 1; stroke-dasharray: none; stroke-linecap: butt; stroke-dashoffset: 0; stroke-linejoin: miter; stroke-miterlimit: 4; fill: rgb(160,97,106); fill-rule: nonzero; opacity: 1;" vector-effect="non-scaling-stroke"  transform=" translate(-198.4, -283.96)" d="M 143.3 202 C 141.3 214 149.5 225.3 161.5 227.3 C 162.8 227.5 164.1 227.60000000000002 165.4 227.60000000000002 L 219.4 384.6 L 253.8 360.90000000000003 L 187.3 203.70000000000005 C 186.3 191.50000000000006 175.70000000000002 182.40000000000003 163.5 183.40000000000003 C 153.3 184.2 144.9 191.9 143.3 202 L 143.3 202 z" stroke-linecap="round" />
</g>
<g transform="matrix(1 0 0 1 224.78 235.89)" id="LsLkjp935zbBa8fcJqZHl"  >
<path style="stroke: none; stroke-width: 1; stroke-dasharray: none; stroke-linecap: butt; stroke-dashoffset: 0; stroke-linejoin: miter; stroke-miterlimit: 4; fill: rgb(217,83,79); fill-rule: nonzero; opacity: 1;" vector-effect="non-scaling-stroke"  transform=" translate(-299.75, -310.08)" d="M 425 255.1 C 401 282.4 342 330.4 293.3 363.5 C 282.8 370.6 272.7 377.1 263.6 382.5 C 257.5 386.1 251.8 389.3 246.60000000000002 391.9 C 232.8 398.79999999999995 216.00000000000003 393.2 209.10000000000002 379.29999999999995 C 208.8 378.69999999999993 208.50000000000003 377.99999999999994 208.20000000000002 377.4 L 174.5 295.9 L 186.2 288.2 L 215 269.09999999999997 L 221.5 264.79999999999995 L 248.5 328.99999999999994 L 276.9 306.19999999999993 L 294.59999999999997 291.99999999999994 L 375.09999999999997 227.39999999999995 L 381.99999999999994 225.29999999999995 L 398.19999999999993 241.09999999999997 L 409.5999999999999 252.29999999999995 L 420.3999999999999 254.19999999999996 C 421.9 254.4 423.5 254.8 425 255.1 z" stroke-linecap="round" />
</g>
<g transform="matrix(1 0 0 1 266.75 313.36)" id="GdduY9ZigZvVRiKULxNam"  >
<path style="stroke: none; stroke-width: 1; stroke-dasharray: none; stroke-linecap: butt; stroke-dashoffset: 0; stroke-linejoin: miter; stroke-miterlimit: 4; fill: rgb(217,83,79); fill-rule: nonzero; opacity: 1;" vector-effect="non-scaling-stroke"  transform=" translate(-341.72, -387.55)" d="M 465.2 342.5 L 462.2 549.9 L 218.2 542.9 L 257.2 456.9 C 256.9 454.09999999999997 274.3 434.79999999999995 274.2 431.9 C 273.9 423.5 280.2 415.7 281.2 406.9 C 283.3 388.79999999999995 271.4 320.2 276.9 306 C 279.2 299.7 282.2 293.6 285.79999999999995 287.9 C 288.9 283.2 292.09999999999997 280 295.19999999999993 278.9 L 304.19999999999993 257.9 L 312.19999999999993 245.89999999999998 L 374.99999999999994 227.29999999999998 L 381.8999999999999 225.2 L 398.0999999999999 241 L 409.4999999999999 252.2 L 420.2999999999999 254.1 C 421.8999999999999 254.4 423.4999999999999 254.7 424.9999999999999 255.1 C 432.1999999999999 256.8 438.9999999999999 260.1 444.6999999999999 264.8 C 463.4 280.9 465.6 310.9 465.2 342.5 z" stroke-linecap="round" />
</g>
<g transform="matrix(1 0 0 1 266.23 486.71)" id="ymJAuUnUsytdgq1awXkQI"  >
<path style="stroke: none; stroke-width: 1; stroke-dasharray: none; stroke-linecap: butt; stroke-dashoffset: 0; stroke-linejoin: miter; stroke-miterlimit: 4; fill: rgb(204,204,204); fill-rule: nonzero; opacity: 1;" vector-effect="non-scaling-stroke"  transform=" translate(-341.2, -560.9)" d="M 605.3 548.4 C 598.4 557 591.0999999999999 565.3 583.4 573.1999999999999 L 557 573.1999999999999 L 415.1 573.4 L 389.6 573.4 L 372.6 573.4 L 347.3 573.4 L 327.90000000000003 573.4 L 292.00000000000006 573.4 L 270.80000000000007 573.4 L 226.20000000000007 573.4 L 204.90000000000006 573.4 L 145.90000000000006 573.5 L 108.90000000000006 573.5 L 99.00000000000006 573.5 C 96.80000000000005 571.2 94.60000000000005 568.9 92.50000000000006 566.6 C 87.20000000000006 560.8000000000001 82.00000000000006 554.8000000000001 77.10000000000005 548.7 L 97.70000000000005 548.7 L 111.70000000000005 548.7 L 144.20000000000005 548.7 L 206.80000000000004 548.6 L 228.00000000000003 548.6 L 236.60000000000002 548.6 L 236.60000000000002 548.6 L 243.3 548.6 L 246.3 548.6 L 254 548.6 L 257.3 548.6 L 280.2 548.6 L 329.5 548.5 L 351.2 548.5 L 372 548.5 L 391.5 548.5 L 419.5 548.5 L 568.8 548.3 L 605.3 548.4 z" stroke-linecap="round" />
</g>
<g transform="matrix(1 0 0 1 263.44 85.17)" id="TlQKqeA9G6uJtfGN8GxXH"  >
<path style="stroke: none; stroke-width: 1; stroke-dasharray: none; stroke-linecap: butt; stroke-dashoffset: 0; stroke-linejoin: miter; stroke-miterlimit: 4; fill: rgb(47,46,65); fill-rule: nonzero; opacity: 1;" vector-effect="non-scaling-stroke"  transform=" translate(-338.41, -159.36)" d="M 267.8 237 L 267.8 237 C 261.7 237.6 256.40000000000003 233.1 255.9 227.1 L 250.20000000000002 166.39999999999998 C 249.20000000000002 155.49999999999997 250.3 144.59999999999997 253.60000000000002 134.09999999999997 C 260.1 113.79999999999997 274.1 96.69999999999996 292.8 86.49999999999997 C 302.5 81.19999999999997 313.1 77.99999999999997 324.1 76.89999999999998 C 368.90000000000003 72.59999999999998 385.3 81.99999999999997 413 150.29999999999998 C 440.7 218.6 418.7 211.09999999999997 418.7 211.09999999999997 C 418.8 212.59999999999997 418.7 213.99999999999997 418.2 215.39999999999998 C 417.3 218.09999999999997 415.4 220.39999999999998 412.9 221.79999999999998 C 411.59999999999997 222.49999999999997 410.2 222.89999999999998 408.7 223.1 C 355.7 236.7 302.3 250.9 267.8 237 L 267.8 237 z" stroke-linecap="round" />
</g>
<g transform="matrix(1 0 0 1 241.8 94.01)" id="zU8KVMk1xezD3RWyFdaaq"  >
<path style="stroke: none; stroke-width: 1; stroke-dasharray: none; stroke-linecap: butt; stroke-dashoffset: 0; stroke-linejoin: miter; stroke-miterlimit: 4; fill: rgb(158,97,106); fill-rule: nonzero; opacity: 1;" vector-effect="non-scaling-stroke"  transform=" translate(-316.77, -168.2)" d="M 366.4 134.5 C 385 162 377.79999999999995 199.4 350.29999999999995 217.9 C 337.09999999999997 226.8 320.9 230.1 305.29999999999995 227.1 C 289.69999999999993 224.2 275.9 215.1 267.09999999999997 201.9 C 248.49999999999997 174.4 255.79999999999995 137 283.29999999999995 118.5 C 296.49999999999994 109.6 312.59999999999997 106.3 328.19999999999993 109.3 C 343.7 112.3 357.5 121.4 366.4 134.5 L 366.4 134.5 z" stroke-linecap="round" />
</g>
<g transform="matrix(1 0 0 1 226.64 66.8)" id="Iixjr_o22X_1yr-_BMfsc"  >
<path style="stroke: none; stroke-width: 1; stroke-dasharray: none; stroke-linecap: butt; stroke-dashoffset: 0; stroke-linejoin: miter; stroke-miterlimit: 4; fill: rgb(47,46,65); fill-rule: nonzero; opacity: 1;" vector-effect="non-scaling-stroke"  transform=" translate(-301.61, -140.99)" d="M 231.3 173.2 C 230.5 164.6 231.4 155.89999999999998 234 147.7 C 234.6 127.6 240.4 109.29999999999998 265 110.1 C 272.6 106 280.9 103.39999999999999 289.6 102.6 L 301.70000000000005 101.39999999999999 C 301.80000000000007 101.39999999999999 302.00000000000006 101.39999999999999 302.1 101.39999999999999 C 337.5 98.1 368.8 124.1 372.1 159.5 C 372.1 159.5 372.1 159.5 372.1 159.5 L 372.20000000000005 160.7 L 346.50000000000006 163.2 L 335.40000000000003 139.5 L 335.90000000000003 164.2 L 322.6 165.5 L 317 153.6 L 317.3 166.1 C 297.6 183.5 267.7 184.4 231.20000000000002 174.6 L 231.3 173.2 z" stroke-linecap="round" />
</g>
<g transform="matrix(1 0 0 1 274.98 107.64)" id="1j_JR9iNHp5lGfMC9OD1R"  >
<path style="stroke: none; stroke-width: 1; stroke-dasharray: none; stroke-linecap: butt; stroke-dashoffset: 0; stroke-linejoin: miter; stroke-miterlimit: 4; fill: rgb(47,46,65); fill-rule: nonzero; opacity: 1;" vector-effect="non-scaling-stroke"  transform=" translate(-349.95, -181.83)" d="M 313.5 230.8 C 313.3 232.8 313.6 234.8 314.5 236.60000000000002 C 314.9 237.50000000000003 315.5 238.40000000000003 316.2 239.20000000000002 C 316.8 239.9 317.4 240.4 318.2 240.9 C 320.3 242.4 322.9 243.1 325.5 242.8 C 325.7 242.8 325.8 242.8 326 242.70000000000002 C 326.2 242.60000000000002 326.3 242.70000000000002 326.5 242.60000000000002 C 326.7 242.60000000000002 326.8 242.50000000000003 327 242.50000000000003 C 327.2 242.50000000000003 327.3 242.40000000000003 327.5 242.40000000000003 L 336.5 239.90000000000003 L 346.5 211.90000000000003 L 348.8 236.50000000000003 L 389.6 225.10000000000002 L 379.8 120.80000000000003 L 310.3 127.60000000000002 L 312.2 129.40000000000003 C 318.5 135.60000000000002 323 143.40000000000003 325.2 151.90000000000003 C 327.4 160.60000000000002 328 169.60000000000002 327.2 178.50000000000003 C 326.4 187.50000000000003 324.7 196.40000000000003 322.2 205.10000000000002 C 320 212.8 317.4 220.3 314.3 227.70000000000002 C 313.9 228.7 313.6 229.7 313.5 230.8 z" stroke-linecap="round" />
</g>
<g transform="matrix(1 0 0 1 215.71 463.09)" id="YQRQYODsfQCibmYm_NVqi"  >
<path style="stroke: none; stroke-width: 1; stroke-dasharray: none; stroke-linecap: butt; stroke-dashoffset: 0; stroke-linejoin: miter; stroke-miterlimit: 4; fill: rgb(63,61,86); fill-rule: nonzero; opacity: 1;" vector-effect="non-scaling-stroke"  transform=" translate(-290.68, -537.28)" d="M 322.8 559.7 C 321.6 559.7 320.40000000000003 559.4000000000001 319.3 558.9000000000001 L 126.80000000000001 563.8000000000001 C 122.80000000000001 561.9000000000001 121.00000000000001 557.1 123.00000000000001 553.0000000000001 C 124.00000000000001 550.9000000000001 125.80000000000001 549.4000000000001 128 548.7000000000002 L 254 511.10000000000014 C 255.3 510.70000000000016 256.7 510.70000000000016 258 510.90000000000015 L 452.8 534.6000000000001 C 457.2 535.5000000000001 459.90000000000003 539.8000000000002 459 544.2000000000002 C 458.4 547.0000000000001 456.4 549.2000000000002 453.7 550.1000000000001 L 325.4 559.0000000000001 C 324.6 559.6 323.7 559.7 322.8 559.7 z" stroke-linecap="round" />
</g>
<g transform="matrix(1 0 0 1 199.56 467.24)" id="8gKfnT-9PuKHIHc2id_XM"  >
<path style="stroke: none; stroke-width: 1; stroke-dasharray: none; stroke-linecap: butt; stroke-dashoffset: 0; stroke-linejoin: miter; stroke-miterlimit: 4; fill: rgb(47,46,65); fill-rule: nonzero; opacity: 1;" vector-effect="non-scaling-stroke"  transform=" translate(-274.53, -541.43)" d="M 329.9 546.3 C 329 546.3 328.2 546.0999999999999 327.4 545.6999999999999 L 171 553 C 168.6 551.6 167.7 548.5 169.1 546.1 C 169.79999999999998 544.9 171 544 172.29999999999998 543.7 L 228.89999999999998 530 C 229.79999999999998 529.8 230.7 529.8 231.59999999999997 530.1 L 377 529.9 C 379.7 530.6999999999999 381.2 533.6 380.4 536.1999999999999 C 379.9 537.8 378.7 539.0999999999999 377.09999999999997 539.5999999999999 L 331.49999999999994 546.1999999999999 C 330.9 546.2 330.4 546.3 329.9 546.3 z" stroke-linecap="round" />
</g>
<g transform="matrix(1 0 0 1 332.14 445.16)" id="h4FyJTfDihuJy1x9tBZlQ"  >
<path style="stroke: none; stroke-width: 1; stroke-dasharray: none; stroke-linecap: butt; stroke-dashoffset: 0; stroke-linejoin: miter; stroke-miterlimit: 4; fill: rgb(160,97,106); fill-rule: nonzero; opacity: 1;" vector-effect="non-scaling-stroke"  transform=" translate(-407.11, -519.35)" d="M 313.4 538 C 323.59999999999997 544.6 337.29999999999995 541.6 343.79999999999995 531.4 C 344.49999999999994 530.3 345.09999999999997 529.1999999999999 345.59999999999997 528 L 511.09999999999997 541 L 503.09999999999997 500 L 332.4 498.4 C 320.79999999999995 494.4 308.2 500.59999999999997 304.29999999999995 512.1999999999999 C 301 521.8 304.8 532.5 313.4 538 z" stroke-linecap="round" />
</g>
<g transform="matrix(1 0 0 1 390.4 332.69)" id="91uI2W3qL-y64QOWevFY2"  >
<path style="stroke: none; stroke-width: 1; stroke-dasharray: none; stroke-linecap: butt; stroke-dashoffset: 0; stroke-linejoin: miter; stroke-miterlimit: 4; fill: rgb(217,83,79); fill-rule: nonzero; opacity: 1;" vector-effect="non-scaling-stroke"  transform=" translate(-465.37, -406.88)" d="M 411.2 271 C 411.2 271 436.2 251 466.2 287 C 486.4 311.3 525.5 458 528.7 518.9 C 529.5 534.3 517.7 547.5 502.20000000000005 548.3 C 501.50000000000006 548.3 500.80000000000007 548.3 500.1 548.3 L 411.90000000000003 546.8 L 402.00000000000006 491.29999999999995 L 471.6 492.09999999999997 L 411.2 271 z" stroke-linecap="round" />
</g>
<g transform="matrix(1 0 0 1 144.48 387.58)" id="M8gZVwEqU7R7bMUDnVYzV"  >
<path style="stroke: none; stroke-width: 1; stroke-dasharray: none; stroke-linecap: butt; stroke-dashoffset: 0; stroke-linejoin: miter; stroke-miterlimit: 4; fill: rgb(63,61,86); fill-rule: nonzero; opacity: 1;" vector-effect="non-scaling-stroke"  transform=" translate(-219.45, -461.77)" d="M 312.1 559.7 C 309.1 559.7 306.1 559.1 303.3 557.9000000000001 L 124.8 562 C 115.1 558 109.5 547.8 111.1 537.4 L 104.5 380.7 C 106.3 369.09999999999997 116.7 360.8 128.4 361.59999999999997 L 294.1 368.49999999999994 C 306.6 369.29999999999995 316.1 380.09999999999997 315.3 392.69999999999993 C 315.2 393.49999999999994 315.2 394.29999999999995 315 395.0999999999999 L 334.4 540.8999999999999 C 332.6 551.7 323.1 559.7 312.1 559.7 z" stroke-linecap="round" />
</g>
<g transform="matrix(1 0 0 1 64.23 75.71)" id="C7ikTO4W1DORU6IEiTTT5"  >
<path style="stroke: none; stroke-width: 1; stroke-dasharray: none; stroke-linecap: butt; stroke-dashoffset: 0; stroke-linejoin: miter; stroke-miterlimit: 4; fill: rgb(230,230,230); fill-rule: nonzero; opacity: 1;" vector-effect="non-scaling-stroke"  transform=" translate(-139.2, -149.9)" d="M 176.6 93.2 L 102.1 93 C 97.89999999999999 93 94.6 96.4 94.6 100.5 L 94.3 199.1 C 94.3 203.29999999999998 97.6 206.6 101.8 206.6 L 143.1 206.7 L 176.3 206.79999999999998 C 180.5 206.79999999999998 183.8 203.39999999999998 183.8 199.29999999999998 L 183.8 193.49999999999997 L 184.10000000000002 100.69999999999997 C 184.1 96.6 180.7 93.2 176.6 93.2 z" stroke-linecap="round" />
</g>
<g transform="matrix(1 0 0 1 64.18 75.71)" id="k4SvFTdUCZ6s-QwE9rdW_"  >
<path style="stroke: none; stroke-width: 1; stroke-dasharray: none; stroke-linecap: butt; stroke-dashoffset: 0; stroke-linejoin: miter; stroke-miterlimit: 4; fill: rgb(255,255,255); fill-rule: nonzero; opacity: 1;" vector-effect="non-scaling-stroke"  transform=" translate(-139.15, -149.9)" d="M 171.3 99.1 L 107.30000000000001 98.89999999999999 C 103.4 98.89999999999999 100.20000000000002 101.99999999999999 100.20000000000002 105.89999999999999 L 100.00000000000001 169.29999999999998 C 100.00000000000001 186.6 114.00000000000001 200.7 131.3 200.79999999999998 L 143.5 200.79999999999998 L 171 200.89999999999998 C 174.9 200.89999999999998 178.1 197.79999999999998 178.1 193.89999999999998 L 178.1 187.49999999999997 L 178.29999999999998 106.09999999999997 C 178.4 102.2 175.2 99.1 171.3 99.1 z" stroke-linecap="round" />
</g>
<g transform="matrix(1 0 0 1 64.18 71.21)" id="RVmoaw5PaFfftbZkvTLGY"  >
<path style="stroke: none; stroke-width: 1; stroke-dasharray: none; stroke-linecap: butt; stroke-dashoffset: 0; stroke-linejoin: miter; stroke-miterlimit: 4; fill: rgb(217,83,79); fill-rule: nonzero; opacity: 1;" vector-effect="non-scaling-stroke"  transform=" translate(-139.15, -145.4)" d="M 164.1 142.4 L 114.19999999999999 142.4 C 112.49999999999999 142.4 111.19999999999999 143.70000000000002 111.19999999999999 145.4 C 111.19999999999999 147.1 112.49999999999999 148.4 114.19999999999999 148.4 C 114.19999999999999 148.4 114.19999999999999 148.4 114.19999999999999 148.4 L 164.1 148.4 C 165.79999999999998 148.4 167.1 147.1 167.1 145.4 C 167.1 143.7 165.8 142.4 164.1 142.4 L 164.1 142.4 z" stroke-linecap="round" />
</g>
<g transform="matrix(1 0 0 1 44.73 54.81)" id="VpQhYzg4ls7FppePlliMf"  >
<path style="stroke: none; stroke-width: 1; stroke-dasharray: none; stroke-linecap: butt; stroke-dashoffset: 0; stroke-linejoin: miter; stroke-miterlimit: 4; fill: rgb(217,83,79); fill-rule: nonzero; opacity: 1;" vector-effect="non-scaling-stroke"  transform=" translate(-119.7, -129)" d="M 125.2 126 L 114.2 126 C 112.5 126 111.2 127.3 111.2 129 C 111.2 130.7 112.5 132 114.2 132 L 125.2 132 C 126.9 132 128.2 130.7 128.2 129 C 128.2 127.3 126.9 126 125.2 126 z" stroke-linecap="round" />
</g>
<g transform="matrix(1 0 0 1 64.18 97.51)" id="fjHrSBQCjYV0YGTnkbEwE"  >
<path style="stroke: none; stroke-width: 1; stroke-dasharray: none; stroke-linecap: butt; stroke-dashoffset: 0; stroke-linejoin: miter; stroke-miterlimit: 4; fill: rgb(217,83,79); fill-rule: nonzero; opacity: 1;" vector-effect="non-scaling-stroke"  transform=" translate(-139.15, -171.7)" d="M 164.1 168.7 L 114.19999999999999 168.7 C 112.49999999999999 168.7 111.19999999999999 170 111.19999999999999 171.7 C 111.19999999999999 173.39999999999998 112.49999999999999 174.7 114.19999999999999 174.7 C 114.19999999999999 174.7 114.19999999999999 174.7 114.19999999999999 174.7 L 164.1 174.7 C 165.79999999999998 174.7 167.1 173.39999999999998 167.1 171.7 C 167.1 170 165.8 168.7 164.1 168.7 z" stroke-linecap="round" />
</g>
<g transform="matrix(1 0 0 1 64.18 84.31)" id="rRCLDUeFyqID8qhqunOGU"  >
<path style="stroke: none; stroke-width: 1; stroke-dasharray: none; stroke-linecap: butt; stroke-dashoffset: 0; stroke-linejoin: miter; stroke-miterlimit: 4; fill: rgb(217,83,79); fill-rule: nonzero; opacity: 1;" vector-effect="non-scaling-stroke"  transform=" translate(-139.15, -158.5)" d="M 164.1 155.5 L 114.19999999999999 155.5 C 112.49999999999999 155.5 111.19999999999999 156.8 111.19999999999999 158.5 C 111.19999999999999 160.2 112.49999999999999 161.5 114.19999999999999 161.5 L 164.1 161.5 C 165.79999999999998 161.5 167.1 160.2 167.1 158.5 C 167.1 156.9 165.8 155.5 164.1 155.5 z" stroke-linecap="round" />
</g>
<g transform="matrix(1 0 0 1 79.43 44.71)" id="Qn5m8cAzlKqjfgTR4AHD4"  >
<path style="stroke: none; stroke-width: 1; stroke-dasharray: none; stroke-linecap: butt; stroke-dashoffset: 0; stroke-linejoin: miter; stroke-miterlimit: 4; fill: rgb(163,218,141); fill-rule: nonzero; opacity: 1;" vector-effect="non-scaling-stroke"  transform=" translate(-154.4, -118.9)" d="M 154.4 136.6 C 144.6 136.6 136.70000000000002 128.7 136.70000000000002 118.89999999999999 C 136.70000000000002 109.1 144.60000000000002 101.19999999999999 154.4 101.19999999999999 C 164.20000000000002 101.19999999999999 172.1 109.1 172.1 118.89999999999999 L 172.1 118.89999999999999 C 172.2 128.6 164.2 136.5 154.4 136.6 z M 154.4 102.3 C 145.3 102.3 137.9 109.7 137.9 118.8 C 137.9 127.89999999999999 145.3 135.3 154.4 135.3 C 163.5 135.3 170.9 127.9 170.9 118.80000000000001 C 170.9 118.80000000000001 170.9 118.80000000000001 170.9 118.80000000000001 C 170.9 109.7 163.5 102.4 154.4 102.3 L 154.4 102.3 z" stroke-linecap="round" />
</g>
<g transform="matrix(1 0 0 1 79.34 43.29)" id="pRsR_aW0X8JJF5Vnrw65y"  >
<path style="stroke: none; stroke-width: 1; stroke-dasharray: none; stroke-linecap: butt; stroke-dashoffset: 0; stroke-linejoin: miter; stroke-miterlimit: 4; fill: rgb(217,83,79); fill-rule: nonzero; opacity: 1;" vector-effect="non-scaling-stroke"  transform=" translate(-154.31, -117.48)" d="M 161.9 125.7 C 160.70000000000002 119.4 158.1 113.4 154.4 108.1 C 154.1 107.69999999999999 153.6 107.5 153.1 107.8 C 153 107.89999999999999 152.9 108 152.79999999999998 108.1 C 149.6 113.69999999999999 147.49999999999997 120 146.7 126.39999999999999 C 146.6 127.6 148.39999999999998 127.6 148.5 126.39999999999999 C 148.8 124.3 149.2 122.19999999999999 149.7 120.19999999999999 C 149.79999999999998 120.19999999999999 149.79999999999998 120.19999999999999 149.89999999999998 120.1 C 152.39999999999998 118.89999999999999 155.09999999999997 118.39999999999999 157.79999999999998 118.8 C 157.79999999999998 118.8 157.79999999999998 118.8 157.89999999999998 118.8 C 158.79999999999998 121.2 159.49999999999997 123.6 159.99999999999997 126.1 C 160.3 127.4 162.1 126.9 161.9 125.7 z M 150.5 118 C 151.3 115.4 152.4 112.8 153.7 110.4 C 155.1 112.5 156.29999999999998 114.7 157.29999999999998 117 C 155 116.8 152.6 117.2 150.5 118 z" stroke-linecap="round" />
</g>
</svg>