<?xml version="1.0" ?><svg enable-background="new 0 0 64 64" height="64px" id="Layer_1" version="1.1" viewBox="0 0 64 64" width="64px" xml:space="preserve" xmlns="http://www.w3.org/2000/svg" xmlns:xlink="http://www.w3.org/1999/xlink"><circle cx="32" cy="32" fill="#E0E0D1" r="32"/><g opacity="0.2"><path d="M19.485,37.466C19.245,36.6,18.456,36,17.558,36h-5.151c-0.6,0-1.169,0.27-1.549,0.735   c-0.38,0.465-0.531,1.076-0.411,1.665c0.911,4.469,3.152,8.489,6.48,11.625c0.374,0.352,0.865,0.544,1.371,0.544   c0.097,0,0.194-0.007,0.291-0.021c0.605-0.089,1.136-0.449,1.441-0.979l2.6-4.503c0.434-0.752,0.333-1.699-0.25-2.343   C21.025,41.226,20.023,39.408,19.485,37.466z" fill="#231F20"/><path d="M36.903,47.656c-0.362-0.628-1.028-1-1.732-1c-0.142,0-0.285,0.015-0.427,0.046   C33.839,46.9,32.915,47,32,47c-1.28,0-2.544-0.188-3.759-0.557c-0.193-0.059-0.389-0.087-0.582-0.087c-0.7,0-1.368,0.369-1.732,1   l-2.553,4.422c-0.295,0.511-0.349,1.125-0.149,1.68c0.2,0.555,0.635,0.992,1.188,1.196C26.832,55.547,29.384,56,32,56   c2.164,0,4.299-0.313,6.346-0.93c0.585-0.176,1.057-0.61,1.282-1.178c0.225-0.568,0.178-1.208-0.127-1.737L36.903,47.656z" fill="#231F20"/><path d="M44.516,30.529C44.754,31.398,45.544,32,46.445,32h5.151c0.6,0,1.168-0.269,1.548-0.734   c0.38-0.464,0.531-1.074,0.412-1.662c-0.984-4.871-3.635-9.309-7.464-12.497c-0.362-0.302-0.816-0.463-1.28-0.463   c-0.117,0-0.234,0.01-0.351,0.031c-0.581,0.103-1.086,0.458-1.381,0.969l-2.556,4.428c-0.465,0.805-0.313,1.825,0.366,2.461   C42.633,26.162,43.887,28.236,44.516,30.529z" fill="#231F20"/><path d="M38.346,12.93C36.299,12.313,34.164,12,32,12c-2.616,0-5.168,0.453-7.587,1.346   c-0.553,0.204-0.988,0.642-1.188,1.197c-0.2,0.554-0.146,1.169,0.149,1.68l2.553,4.422c0.364,0.631,1.032,1,1.732,1   c0.194,0,0.389-0.028,0.582-0.087C29.456,21.188,30.72,21,32,21c0.915,0,1.839,0.1,2.744,0.298   c0.142,0.031,0.286,0.046,0.427,0.046c0.704,0,1.369-0.372,1.732-1l2.598-4.499c0.305-0.529,0.352-1.169,0.127-1.736   C39.403,13.541,38.931,13.107,38.346,12.93z" fill="#231F20"/><path d="M51.596,36h-5.151c-0.901,0-1.69,0.602-1.929,1.471c-0.629,2.294-1.883,4.368-3.625,5.997   c-0.679,0.635-0.831,1.655-0.366,2.46l2.556,4.428c0.295,0.511,0.8,0.866,1.381,0.969c0.117,0.021,0.234,0.031,0.351,0.031   c0.464,0,0.918-0.161,1.28-0.463c3.829-3.188,6.48-7.627,7.464-12.497c0.119-0.588-0.033-1.198-0.412-1.663   C52.764,36.269,52.196,36,51.596,36z" fill="#231F20"/><path d="M20.03,18.432c-0.306-0.529-0.837-0.89-1.441-0.979c-0.097-0.014-0.194-0.021-0.291-0.021   c-0.506,0-0.998,0.192-1.371,0.544c-3.329,3.136-5.57,7.156-6.48,11.625c-0.12,0.588,0.031,1.2,0.411,1.665   C11.237,31.73,11.806,32,12.406,32h5.151c0.899,0,1.687-0.6,1.927-1.466c0.538-1.943,1.54-3.761,2.895-5.258   c0.583-0.644,0.684-1.59,0.25-2.343L20.03,18.432z" fill="#231F20"/></g><g><path d="M19.485,35.466C19.245,34.6,18.456,34,17.558,34h-5.151c-0.6,0-1.169,0.27-1.549,0.735   c-0.38,0.465-0.531,1.076-0.411,1.665c0.911,4.469,3.152,8.489,6.48,11.625c0.374,0.352,0.865,0.544,1.371,0.544   c0.097,0,0.194-0.007,0.291-0.021c0.605-0.089,1.136-0.449,1.441-0.979l2.6-4.503c0.434-0.752,0.333-1.699-0.25-2.343   C21.025,39.226,20.023,37.408,19.485,35.466z" fill="#77B3D4"/><path d="M36.903,45.656c-0.362-0.628-1.028-1-1.732-1c-0.142,0-0.285,0.015-0.427,0.046   C33.839,44.9,32.915,45,32,45c-1.28,0-2.544-0.188-3.759-0.557c-0.193-0.059-0.389-0.087-0.582-0.087c-0.7,0-1.368,0.369-1.732,1   l-2.553,4.422c-0.295,0.511-0.349,1.125-0.149,1.68c0.2,0.555,0.635,0.992,1.188,1.196C26.832,53.547,29.384,54,32,54   c2.164,0,4.299-0.313,6.346-0.93c0.585-0.176,1.057-0.61,1.282-1.178c0.225-0.568,0.178-1.208-0.127-1.737L36.903,45.656z" fill="#76C2AF"/><path d="M44.516,28.529C44.754,29.398,45.544,30,46.445,30h5.151c0.6,0,1.168-0.269,1.548-0.734   c0.38-0.464,0.531-1.074,0.412-1.662c-0.984-4.871-3.635-9.309-7.464-12.497c-0.362-0.301-0.816-0.463-1.28-0.463   c-0.117,0-0.234,0.01-0.351,0.031c-0.581,0.104-1.086,0.458-1.381,0.969l-2.556,4.428c-0.465,0.805-0.313,1.825,0.366,2.461   C42.633,24.162,43.887,26.236,44.516,28.529z" fill="#E0995E"/><path d="M38.346,10.93C36.299,10.313,34.164,10,32,10c-2.616,0-5.168,0.453-7.587,1.346   c-0.553,0.204-0.988,0.642-1.188,1.197c-0.2,0.554-0.146,1.169,0.149,1.68l2.553,4.422c0.364,0.631,1.032,1,1.732,1   c0.194,0,0.389-0.028,0.582-0.087C29.456,19.188,30.72,19,32,19c0.915,0,1.839,0.1,2.744,0.298   c0.142,0.031,0.286,0.046,0.427,0.046c0.704,0,1.369-0.372,1.732-1l2.598-4.499c0.305-0.529,0.352-1.169,0.127-1.736   C39.403,11.541,38.931,11.107,38.346,10.93z" fill="#C75C5C"/><path d="M51.596,34h-5.151c-0.901,0-1.69,0.602-1.929,1.471c-0.629,2.294-1.883,4.368-3.625,5.997   c-0.679,0.635-0.831,1.655-0.366,2.46l2.556,4.428c0.295,0.511,0.8,0.866,1.381,0.969c0.117,0.021,0.234,0.031,0.351,0.031   c0.464,0,0.918-0.161,1.28-0.463c3.829-3.188,6.48-7.627,7.464-12.497c0.119-0.588-0.033-1.198-0.412-1.663   C52.764,34.269,52.196,34,51.596,34z" fill="#F5CF87"/><path d="M20.03,16.432c-0.306-0.529-0.837-0.89-1.441-0.979c-0.097-0.014-0.194-0.021-0.291-0.021   c-0.506,0-0.998,0.192-1.371,0.544c-3.329,3.136-5.57,7.156-6.48,11.625c-0.12,0.588,0.031,1.2,0.411,1.665   C11.237,29.73,11.806,30,12.406,30h5.151c0.899,0,1.687-0.6,1.927-1.466c0.538-1.943,1.54-3.761,2.895-5.258   c0.583-0.644,0.684-1.59,0.25-2.343L20.03,16.432z" fill="#4F5D73"/></g></svg>