<?xml version="1.0" encoding="UTF-8" standalone="no" ?>
<!DOCTYPE svg PUBLIC "-//W3C//DTD SVG 1.1//EN" "http://www.w3.org/Graphics/SVG/1.1/DTD/svg11.dtd">
<svg xmlns="http://www.w3.org/2000/svg" xmlns:xlink="http://www.w3.org/1999/xlink" version="1.1" width="500" height="500" viewBox="0 0 500 500" xml:space="preserve">
<desc>Created with Fabric.js 4.6.0</desc>
<defs>
</defs>
<g transform="matrix(1.76 0 0 1.76 229.67 233.57)" id="31gNYTfBXigKSfGBFchTB"  >
<path style="stroke: none; stroke-width: 1; stroke-dasharray: none; stroke-linecap: butt; stroke-dashoffset: 0; stroke-linejoin: miter; stroke-miterlimit: 4; fill: rgb(63,61,86); fill-rule: nonzero; opacity: 1;" vector-effect="non-scaling-stroke"  transform=" translate(-367.95, -233.75)" d="M 444.2 143.1 C 443 140.29999999999998 440.3 138.5 437.3 138.5 L 298.6 138.5 C 294.40000000000003 138.5 291.1 141.9 291.1 146 L 291.1 321.5 C 291.1 325.7 294.5 329 298.6 329 L 437.3 329 C 441.5 329 444.8 325.6 444.8 321.5 L 444.8 146 C 444.8 145 444.6 144 444.2 143.1 z M 443.1 321.5 C 443.1 324.7 440.5 327.3 437.20000000000005 327.3 L 298.6 327.3 C 295.40000000000003 327.3 292.8 324.7 292.70000000000005 321.5 L 292.70000000000005 146 C 292.70000000000005 142.8 295.30000000000007 140.2 298.6 140.1 L 437.3 140.1 C 439.7 140.1 441.8 141.6 442.7 143.79999999999998 C 442.8 143.99999999999997 442.9 144.2 442.9 144.49999999999997 C 443 144.99999999999997 443.09999999999997 145.49999999999997 443.09999999999997 145.99999999999997 L 443.09999999999997 321.5 z" stroke-linecap="round" />
</g>
<g transform="matrix(1.76 0 0 1.76 276.18 133.08)" id="S-nkFXv1z5KOuThFbZ4w-"  >
<path style="stroke: none; stroke-width: 1; stroke-dasharray: none; stroke-linecap: butt; stroke-dashoffset: 0; stroke-linejoin: miter; stroke-miterlimit: 4; fill: rgb(63,61,86); fill-rule: nonzero; opacity: 1;" vector-effect="non-scaling-stroke"  transform=" translate(-394.4, -176.6)" d="M 415.3 179.9 L 373.5 179.9 C 371.7 179.9 370.2 178.4 370.2 176.6 C 370.2 174.79999999999998 371.7 173.29999999999998 373.5 173.29999999999998 L 415.3 173.29999999999998 C 417.1 173.29999999999998 418.6 174.79999999999998 418.6 176.6 C 418.6 178.4 417.1 179.9 415.3 179.9 z" stroke-linecap="round" />
</g>
<g transform="matrix(1.76 0 0 1.76 276.18 163.85)" id="WcSKmQstmO4RoA_Z_QxhF"  >
<path style="stroke: none; stroke-width: 1; stroke-dasharray: none; stroke-linecap: butt; stroke-dashoffset: 0; stroke-linejoin: miter; stroke-miterlimit: 4; fill: rgb(63,61,86); fill-rule: nonzero; opacity: 1;" vector-effect="non-scaling-stroke"  transform=" translate(-394.4, -194.1)" d="M 415.3 197.4 L 373.5 197.4 C 371.7 197.4 370.2 195.9 370.2 194.1 C 370.2 192.29999999999998 371.7 190.79999999999998 373.5 190.79999999999998 L 415.3 190.79999999999998 C 417.1 190.79999999999998 418.6 192.29999999999998 418.6 194.1 C 418.6 195.9 417.1 197.4 415.3 197.4 z" stroke-linecap="round" />
</g>
<g transform="matrix(1.76 0 0 1.76 173.92 148.9)" id="z8Ej-16Ts0YCvbTvRqtzv"  >
<path style="stroke: none; stroke-width: 1; stroke-dasharray: none; stroke-linecap: butt; stroke-dashoffset: 0; stroke-linejoin: miter; stroke-miterlimit: 4; fill: rgb(255,238,173); fill-rule: nonzero; opacity: 1;" vector-effect="non-scaling-stroke"  transform=" translate(0, 0)" d="M 15.25 21.8 L -15.25 21.8 C -17.35 21.8 -19.05 20.1 -19.05 18 L -19.05 -18 C -19.05 -20.1 -17.35 -21.8 -15.25 -21.8 L 15.25 -21.8 C 17.35 -21.8 19.05 -20.1 19.05 -18 L 19.05 18 C 18.95 20.2 17.25 21.8 15.25 21.8 z" stroke-linecap="round" />
</g>
<g transform="matrix(1.76 0 0 1.76 229.32 227.07)" id="AkBOHcww4-R5jzrNiS6Pm"  >
<path style="stroke: none; stroke-width: 1; stroke-dasharray: none; stroke-linecap: butt; stroke-dashoffset: 0; stroke-linejoin: miter; stroke-miterlimit: 4; fill: rgb(255,173,96); fill-rule: nonzero; opacity: 1;" vector-effect="non-scaling-stroke"  transform=" translate(-367.75, -230.05)" d="M 415 233.4 L 320.6 233.4 C 318.8 233.4 317.3 231.9 317.20000000000005 230.1 C 317.20000000000005 228.29999999999998 318.70000000000005 226.79999999999998 320.50000000000006 226.7 C 320.50000000000006 226.7 320.50000000000006 226.7 320.50000000000006 226.7 L 415 226.7 C 416.8 226.7 418.3 228.2 418.3 230.1 C 418.3 231.9 416.8 233.4 415 233.4 z" stroke-linecap="round" />
</g>
<g transform="matrix(1.76 0 0 1.76 230.79 257.84)" id="BPNBOxy2aUQTKAEE2FErx"  >
<path style="stroke: none; stroke-width: 1; stroke-dasharray: none; stroke-linecap: butt; stroke-dashoffset: 0; stroke-linejoin: miter; stroke-miterlimit: 4; fill: rgb(255,173,96); fill-rule: nonzero; opacity: 1;" vector-effect="non-scaling-stroke"  transform=" translate(0, 0)" d="M 46.41057 3.35 C 46.41057 3.35 61.88113 3.35 38.28113 3.35 C 14.681129999999996 3.35 -47.989430000000006 3.35 -47.989430000000006 3.35 C -49.78943 3.35 -51.28943 1.85 -51.389430000000004 0.050000000000000266 C -51.389430000000004 -1.7499999999999998 -49.889430000000004 -3.2499999999999996 -48.08943000000001 -3.3499999999999996 L -48.08943000000001 -3.3499999999999996 L 46.41056999999999 -3.3499999999999996 C 48.21056999999999 -3.3499999999999996 49.71056999999999 -1.8499999999999996 49.71056999999999 -0.04999999999999982 C 49.71056999999999 1.85 48.21056999999999 3.35 46.41056999999999 3.35 z" stroke-linecap="round" />
</g>
<g transform="matrix(1.76 0 0 1.76 229.32 288.79)" id="u3qfmLISVv81_UX7xbyVT"  >
<path style="stroke: none; stroke-width: 1; stroke-dasharray: none; stroke-linecap: butt; stroke-dashoffset: 0; stroke-linejoin: miter; stroke-miterlimit: 4; fill: rgb(255,173,96); fill-rule: nonzero; opacity: 1;" vector-effect="non-scaling-stroke"  transform=" translate(-367.75, -265.15)" d="M 415 268.5 L 320.6 268.5 C 318.8 268.5 317.3 267 317.20000000000005 265.2 C 317.1000000000001 263.4 318.70000000000005 261.9 320.50000000000006 261.8 C 320.50000000000006 261.8 320.50000000000006 261.8 320.50000000000006 261.8 L 415 261.8 C 416.8 261.8 418.3 263.3 418.3 265.1 C 418.3 267 416.8 268.5 415 268.5 z" stroke-linecap="round" />
</g>
<g transform="matrix(1.76 0 0 1.76 229.32 319.56)" id="tZHeU_ZsB1f2ncODfzbIa"  >
<path style="stroke: none; stroke-width: 1; stroke-dasharray: none; stroke-linecap: butt; stroke-dashoffset: 0; stroke-linejoin: miter; stroke-miterlimit: 4; fill: rgb(255,173,96); fill-rule: nonzero; opacity: 1;" vector-effect="non-scaling-stroke"  transform=" translate(-367.75, -282.65)" d="M 415 286 L 320.6 286 C 318.8 286 317.3 284.5 317.20000000000005 282.7 C 317.20000000000005 280.9 318.70000000000005 279.4 320.50000000000006 279.3 C 320.50000000000006 279.3 320.50000000000006 279.3 320.50000000000006 279.3 L 415 279.3 C 416.8 279.3 418.3 280.8 418.3 282.6 C 418.3 284.5 416.8 286 415 286 z" stroke-linecap="round" />
</g>
<g transform="matrix(1.76 0 0 1.76 229.32 350.51)" id="I03NTIKE1dBRxirKz7w6f"  >
<path style="stroke: none; stroke-width: 1; stroke-dasharray: none; stroke-linecap: butt; stroke-dashoffset: 0; stroke-linejoin: miter; stroke-miterlimit: 4; fill: rgb(255,173,96); fill-rule: nonzero; opacity: 1;" vector-effect="non-scaling-stroke"  transform=" translate(-367.75, -300.25)" d="M 415 303.6 L 320.6 303.6 C 318.8 303.6 317.3 302.1 317.20000000000005 300.3 C 317.20000000000005 298.5 318.70000000000005 297 320.50000000000006 296.90000000000003 C 320.50000000000006 296.90000000000003 320.50000000000006 296.90000000000003 320.50000000000006 296.90000000000003 L 415 296.90000000000003 C 416.8 296.90000000000003 418.3 298.40000000000003 418.3 300.3 C 418.3 302.1 416.8 303.6 415 303.6 z" stroke-linecap="round" />
</g>
</svg>