<?xml version="1.0" encoding="UTF-8" standalone="no" ?>
<!DOCTYPE svg PUBLIC "-//W3C//DTD SVG 1.1//EN" "http://www.w3.org/Graphics/SVG/1.1/DTD/svg11.dtd">
<svg xmlns="http://www.w3.org/2000/svg" xmlns:xlink="http://www.w3.org/1999/xlink" version="1.1" width="500" height="500" viewBox="0 0 500 500" xml:space="preserve">
<desc>Created with Fabric.js 4.6.0</desc>
<defs>
</defs>
<g transform="matrix(0.8 0 0 0.8 250.04 440.18)" id="bGOjaZUqlSXa0r03-YarS"  >
<path style="stroke: none; stroke-width: 1; stroke-dasharray: none; stroke-linecap: butt; stroke-dashoffset: 0; stroke-linejoin: miter; stroke-miterlimit: 4; fill: rgb(63,61,86); fill-rule: nonzero; opacity: 1;" vector-effect="non-scaling-stroke"  transform=" translate(-310, -635.6)" d="M 620 635.6 C 620 661.3000000000001 481.2 682.1 310 682.1 C 138.8 682.1 0 661.3 0 635.6 C 0 617.4 69.6 601.7 171 594 C 212.8 590.8 260 589.1 310 589.1 C 330.5 589.1 350.6 589.4 370 590 C 512.5 594.2 620 613 620 635.6 z" stroke-linecap="round" />
</g>
<g transform="matrix(0.8 0 0 0.8 217.89 436.16)" id="JQIc-FsE5V_zMpocMj9vo"  >
<path style="stroke: none; stroke-width: 1; stroke-dasharray: none; stroke-linecap: butt; stroke-dashoffset: 0; stroke-linejoin: miter; stroke-miterlimit: 4; fill: rgb(0,0,0); fill-rule: nonzero; opacity: 0.1;" vector-effect="non-scaling-stroke"  transform=" translate(-119, -14.5)" d="M 0 14.5 C 0 6.4918700000000005 53.27811 0 119 0 C 184.72189 0 238 6.49187 238 14.5 C 238 22.50813 184.72189 29 119 29 C 53.27811 29 0 22.50813 0 14.5 z" stroke-linecap="round" />
</g>
<g transform="matrix(0.8 0 0 0.8 217.48 348.15)" id="5KMAQAjRzmo58US1JZYDO"  >
<path style="stroke: none; stroke-width: 1; stroke-dasharray: none; stroke-linecap: butt; stroke-dashoffset: 0; stroke-linejoin: miter; stroke-miterlimit: 4; fill: rgb(63,61,86); fill-rule: nonzero; opacity: 1;" vector-effect="non-scaling-stroke"  transform=" translate(-112.5, -120)" d="M 0 120 C 0 53.72583 50.36797 0 112.5 0 C 174.63203 0 225 53.72583 225 120 C 225 186.27417 174.63203 240 112.5 240 C 50.36797 240 0 186.27417 0 120 z" stroke-linecap="round" />
</g>
<g transform="matrix(0.8 0 0 0.8 217.89 430.94)" id="9GUf83AC9ucfUr8o1_mGy"  >
<path style="stroke: none; stroke-width: 1; stroke-dasharray: none; stroke-linecap: butt; stroke-dashoffset: 0; stroke-linejoin: miter; stroke-miterlimit: 4; fill: rgb(217,83,79); fill-rule: nonzero; opacity: 1;" vector-effect="non-scaling-stroke"  transform=" translate(-35, -32)" d="M 0 64 L 0 0 L 70 0 L 70 64 z" stroke-linecap="round" />
</g>
<g transform="matrix(0.8 0 0 0.8 333.62 428.13)" id="XPlkfRoWxJamHQNv7CivB"  >
<path style="stroke: none; stroke-width: 1; stroke-dasharray: none; stroke-linecap: butt; stroke-dashoffset: 0; stroke-linejoin: miter; stroke-miterlimit: 4; fill: rgb(87,90,137); fill-rule: nonzero; opacity: 1;" vector-effect="non-scaling-stroke"  transform=" translate(-414, -620.6)" d="M 396.5 607.6 L 392.5 629.6 L 418.5 633.6 L 435.5 623.6 L 434.5 607.6 z" stroke-linecap="round" />
</g>
<g transform="matrix(0.8 0 0 0.8 229.96 111.62)" id="W_d5L0DGKvS8lma_1k45i"  >
<path style="stroke: none; stroke-width: 1; stroke-dasharray: none; stroke-linecap: butt; stroke-dashoffset: 0; stroke-linejoin: miter; stroke-miterlimit: 4; fill: rgb(160,97,106); fill-rule: nonzero; opacity: 1;" vector-effect="non-scaling-stroke"  transform=" translate(-285.02, -226.81)" d="M 265.5 194.6 C 265.5 194.6 263.5 217.6 258.5 218.6 C 253.5 219.6 269.5 259.6 269.5 259.6 L 293.5 259.6 L 312.5 254.60000000000002 L 303.5 232.60000000000002 C 303.5 232.60000000000002 291.5 216.60000000000002 300.5 203.60000000000002 C 309.5 190.60000000000002 265.5 194.6 265.5 194.6 z" stroke-linecap="round" />
</g>
<g transform="matrix(0.8 0 0 0.8 229.96 111.62)" id="s8p2NnoEHIv3dq_lZ7461"  >
<path style="stroke: none; stroke-width: 1; stroke-dasharray: none; stroke-linecap: butt; stroke-dashoffset: 0; stroke-linejoin: miter; stroke-miterlimit: 4; fill: rgb(0,0,0); fill-rule: nonzero; opacity: 0.1;" vector-effect="non-scaling-stroke"  transform=" translate(-285.02, -226.81)" d="M 265.5 194.6 C 265.5 194.6 263.5 217.6 258.5 218.6 C 253.5 219.6 269.5 259.6 269.5 259.6 L 293.5 259.6 L 312.5 254.60000000000002 L 303.5 232.60000000000002 C 303.5 232.60000000000002 291.5 216.60000000000002 300.5 203.60000000000002 C 309.5 190.60000000000002 265.5 194.6 265.5 194.6 z" stroke-linecap="round" />
</g>
<g transform="matrix(0.8 0 0 0.8 263.89 324.06)" id="SR3KANDRgQH1_zVOSaUHt"  >
<path style="stroke: none; stroke-width: 1; stroke-dasharray: none; stroke-linecap: butt; stroke-dashoffset: 0; stroke-linejoin: miter; stroke-miterlimit: 4; fill: rgb(20,99,86); fill-rule: nonzero; opacity: 1;" vector-effect="non-scaling-stroke"  transform=" translate(-327.24, -491.12)" d="M 215.5 370.6 C 215.5 370.6 189.5 420.6 210.5 430.6 C 231.5 440.6 236.5 439.6 236.5 442.6 C 236.5 445.6 232.5 444.6 234.5 449.6 C 236.5 454.6 230.5 474.6 236.5 486.6 C 242.5 498.6 240.5 507.6 240.5 507.6 C 240.5 507.6 240.5 508.6 242.5 512.6 C 244.5 516.6 245.5 519.6 244.5 521.6 C 243.5 523.6 237.5 536.6 243.5 539.6 C 249.5 542.6 280.5 544.6 283.5 539.6 C 286.5 534.6 280.5 531.6 283.5 528.6 C 286.5 525.6 288.5 524.6 286.5 522.6 C 284.5 520.6 282.5 495.6 282.5 495.6 C 282.5 495.6 287.5 466.6 285.5 462.6 C 283.5 458.6 280.5 454.6 282.5 451.6 C 284.5 448.6 286.5 449.6 287.5 445.6 C 288.5 441.6 290.5 432.6 290.5 432.6 L 301.5 431.6 L 327.5 436.6 C 327.5 436.6 356.5 468.6 388.5 478.6 C 388.5 478.6 397.5 487.6 400.5 487.6 C 403.5 487.6 403.5 487.6 402.5 489.6 C 401.5 491.6 398.5 491.6 400.5 493.6 C 402.5 495.6 405.5 492.6 403.5 495.6 C 401.5 498.6 399.5 498.6 401.5 500.6 C 403.5 502.6 400.5 513.6 400.5 514.6 C 400.5 515.6 391.5 609.6 394.5 611.6 C 397.5 613.6 439.5 619.6 442.5 611.6 C 445.5 603.6 440.5 593.6 440.5 593.6 C 440.5 593.6 455.5 473.6 451.5 465.6 C 447.5 457.6 433.5 421.6 358.5 398.6 C 358.5 398.6 337.5 394.6 337.5 391.6 C 337.5 388.6 335.5 369.6 331.5 368.6 C 327.5 367.6 304.5 366.6 304.5 366.6 L 275.5 375.6 L 235.5 368.6 L 215.5 370.6 z" stroke-linecap="round" />
</g>
<g transform="matrix(0.8 0 0 0.8 214.46 388.13)" id="DU8woabTD5VgJavecua6z"  >
<path style="stroke: none; stroke-width: 1; stroke-dasharray: none; stroke-linecap: butt; stroke-dashoffset: 0; stroke-linejoin: miter; stroke-miterlimit: 4; fill: rgb(47,46,65); fill-rule: nonzero; opacity: 1;" vector-effect="non-scaling-stroke"  transform=" translate(-265.74, -570.84)" d="M 250.5 538.6 L 245.5 556.6 C 245.5 556.6 241.5 585.6 246.5 592.6 C 250.4 598.1 257.4 604.8000000000001 270.4 606 C 277.9 606.7 284.9 602.1 287.2 594.9 C 287.3 594.5 287.4 594 287.5 593.6 C 287.5 591.6 284.5 567.6 284.5 567.6 L 279.5 542.6 L 278.5 535.6 L 250.5 538.6 z" stroke-linecap="round" />
</g>
<g transform="matrix(0.8 0 0 0.8 353.11 441.66)" id="5mNu41LEn_yWNzwXJMiPj"  >
<path style="stroke: none; stroke-width: 1; stroke-dasharray: none; stroke-linecap: butt; stroke-dashoffset: 0; stroke-linejoin: miter; stroke-miterlimit: 4; fill: rgb(47,46,65); fill-rule: nonzero; opacity: 1;" vector-effect="non-scaling-stroke"  transform=" translate(-438.24, -637.44)" d="M 396.5 624.6 C 396.5 624.6 391.5 619.6 390.5 624.6 C 389.5 629.6 385.5 650.6 392.5 651.6 C 399.5 652.6 466.5 662.6 473.5 658.6 C 480.5 654.6 493.5 648.6 485.5 645.6 C 477.5 642.6 454.5 633.6 454.5 633.6 C 454.5 633.6 441.5 616.6 439.5 615.6 C 437.5 614.6 426.5 616.6 421.5 620.6 C 416.5 624.6 396.5 624.6 396.5 624.6 z" stroke-linecap="round" />
</g>
<g transform="matrix(0.8 0 0 0.8 233.56 77.69)" id="AZrIejm6LWBi9w_pdmLKo"  >
<path style="stroke: none; stroke-width: 1; stroke-dasharray: none; stroke-linecap: butt; stroke-dashoffset: 0; stroke-linejoin: miter; stroke-miterlimit: 4; fill: rgb(160,97,106); fill-rule: nonzero; opacity: 1;" vector-effect="non-scaling-stroke"  transform=" translate(-31, -31)" d="M 0 31 C 0 13.879169999999998 13.87917 0 31 0 C 48.12083 0 62 13.87917 62 31 C 62 48.12083 48.12083 62 31 62 C 13.879169999999998 62 0 48.12083 0 31 z" stroke-linecap="round" />
</g>
<g transform="matrix(0.8 0 0 0.8 220.18 168.52)" id="juVMZQDaGQR5xNbgtT4kN"  >
<path style="stroke: none; stroke-width: 1; stroke-dasharray: none; stroke-linecap: butt; stroke-dashoffset: 0; stroke-linejoin: miter; stroke-miterlimit: 4; fill: rgb(255,238,173); fill-rule: nonzero; opacity: 1;" vector-effect="non-scaling-stroke"  transform=" translate(-272.85, -297.6)" d="M 286.5 254.6 L 274.5 241.6 L 261.2 215.6 C 261.2 215.6 251.5 212.6 249.5 217.6 C 247.5 222.6 211.5 238.6 211.5 238.6 C 211.5 238.6 220.5 322.6 216.5 330.6 C 212.5 338.6 205.5 370.6 211.5 373.6 C 217.5 376.6 245.5 373.6 254.5 377.6 C 263.5 381.6 289.5 381.6 296.5 376.6 C 303.5 371.6 305.5 367.6 312.5 370.6 C 318.5 373.20000000000005 332.4 285.8 336.4 259.8 C 337.09999999999997 255.3 335.2 250.9 331.5 248.3 C 322.5 242 306.4 231.20000000000002 303.5 232.60000000000002 C 299.5 234.6 286.5 254.6 286.5 254.6 z" stroke-linecap="round" />
</g>
<g transform="matrix(0.8 0 0 0.8 266.3 173.76)" id="NF5qXDG5NRAc3I3OpS1RQ"  >
<path style="stroke: none; stroke-width: 1; stroke-dasharray: none; stroke-linecap: butt; stroke-dashoffset: 0; stroke-linejoin: miter; stroke-miterlimit: 4; fill: rgb(255,238,173); fill-rule: nonzero; opacity: 1;" vector-effect="non-scaling-stroke"  transform=" translate(-330.24, -304.12)" d="M 329.5 250.6 L 329.5 250.6 C 334.3 251.79999999999998 337.9 255.9 338.4 260.8 L 346.5 333.6 C 346.5 333.6 326.5 376.6 316.5 347.6 C 306.5 318.6 329.5 250.6 329.5 250.6 z" stroke-linecap="round" />
</g>
<g transform="matrix(0.8 0 0 0.8 269.93 215.21)" id="SS6WPpOyG03h-khebFBcG"  >
<path style="stroke: none; stroke-width: 1; stroke-dasharray: none; stroke-linecap: butt; stroke-dashoffset: 0; stroke-linejoin: miter; stroke-miterlimit: 4; fill: rgb(255,238,173); fill-rule: nonzero; opacity: 1;" vector-effect="non-scaling-stroke"  transform=" translate(-334.75, -355.69)" d="M 327.5 340.6 L 349.5 334.6 C 349.5 334.6 353.5 362.6 357.5 362.6 C 361.5 362.6 343.5 378.6 334.5 376.6 C 325.5 374.6 312.5 367.6 311.5 362.6 C 310.5 357.6 320.5 336.6 320.5 336.6 L 327.5 340.6 z" stroke-linecap="round" />
</g>
<g transform="matrix(0.8 0 0 0.8 229.52 61.74)" id="dz1cHn7RytxTreJ9Ym68q"  >
<path style="stroke: none; stroke-width: 1; stroke-dasharray: none; stroke-linecap: butt; stroke-dashoffset: 0; stroke-linejoin: miter; stroke-miterlimit: 4; fill: rgb(47,46,65); fill-rule: nonzero; opacity: 1;" vector-effect="non-scaling-stroke"  transform=" translate(-284.47, -164.75)" d="M 266.1 198 C 268.20000000000005 193.4 267.8 187.9 269.6 183.1 C 272.90000000000003 173.9 283.1 169.1 292.3 172.5 C 293.8 173 295.2 173.8 296.5 174.7 C 298.7 176.29999999999998 301 178.5 303.7 178.2 C 306.59999999999997 177.89999999999998 309.3 174.6 312 175.79999999999998 C 315 177.1 314.2 182.49999999999997 317.2 183.79999999999998 C 318.8 184.49999999999997 320.7 183.39999999999998 321.59999999999997 181.99999999999997 C 322.4 180.49999999999997 322.79999999999995 178.79999999999998 322.9 176.99999999999997 C 323.29999999999995 172.69999999999996 323.7 168.19999999999996 321.79999999999995 164.39999999999998 C 320.99999999999994 163.09999999999997 320.29999999999995 161.7 319.79999999999995 160.29999999999998 C 319.49999999999994 158.99999999999997 319.29999999999995 157.6 319.4 156.29999999999998 C 319.4 151.29999999999998 319 146.1 316.5 141.7 C 313.7 136.89999999999998 308.5 133.79999999999998 303.1 132.5 C 297.70000000000005 131.20000000000002 292 131.4 286.5 131.8 C 277.3 132.60000000000002 267.8 134.20000000000002 260.6 139.9 C 259.6 140.6 258.8 141.5 258.1 142.5 C 257.5 143.7 257 145 256.8 146.3 C 255.20000000000002 152.70000000000002 252.9 158.8 249.8 164.60000000000002 C 248.3 167.10000000000002 247.10000000000002 169.70000000000002 246.20000000000002 172.40000000000003 C 245.4 175.20000000000005 245.50000000000003 178.30000000000004 247.10000000000002 180.70000000000005 C 248.40000000000003 182.60000000000005 250.50000000000003 183.70000000000005 252.10000000000002 185.20000000000005 C 253.70000000000002 186.80000000000004 254.50000000000003 189.80000000000004 256.3 190.90000000000003 C 257.90000000000003 191.90000000000003 259.8 191.20000000000005 261.40000000000003 192.30000000000004 C 263.5 193.8 263.7 196.9 266.1 198 z" stroke-linecap="round" />
</g>
<g transform="matrix(0.8 0 0 0.8 276.16 160.48)" id="fbhrz8qTrADgWm319IXKA"  >
<path style="stroke: none; stroke-width: 1; stroke-dasharray: none; stroke-linecap: butt; stroke-dashoffset: 0; stroke-linejoin: miter; stroke-miterlimit: 4; fill: rgb(242,242,242); fill-rule: nonzero; opacity: 1;" vector-effect="non-scaling-stroke"  transform=" translate(-342.5, -287.6)" d="M 291.5 269.6 L 294.5 263.6 C 294.5 263.6 338.5 276.6 347.5 288.6 C 347.5 288.6 369.5 274.6 381.5 276.6 L 393.5 278.6 L 356.5 311.6 L 309.5 307.6 L 291.5 269.6 z" stroke-linecap="round" />
</g>
<g transform="matrix(0.8 0 0 0.8 258.88 176.29)" id="e2P5Wszzd5FsXwv9svBJr"  >
<path style="stroke: none; stroke-width: 1; stroke-dasharray: none; stroke-linecap: butt; stroke-dashoffset: 0; stroke-linejoin: miter; stroke-miterlimit: 4; fill: rgb(217,83,79); fill-rule: nonzero; opacity: 1;" vector-effect="non-scaling-stroke"  transform=" translate(-321, -307.27)" d="M 289.5 263.6 L 248.5 320.6 L 307.5 349.6 C 307.5 349.6 313 352.6 317.3 349.6 L 356.5 331.6 L 393.5 278.6 L 356.5 297.6 C 356.5 297.6 352.5 289.6 344.5 293.6 L 289.5 263.6 z" stroke-linecap="round" />
</g>
<g transform="matrix(0.8 0 0 0.8 289.83 199.54)" id="yCymNx3qyYIlyMxlicj3S"  >
<path style="stroke: none; stroke-width: 1; stroke-dasharray: none; stroke-linecap: butt; stroke-dashoffset: 0; stroke-linejoin: miter; stroke-miterlimit: 4; fill: rgb(160,97,106); fill-rule: nonzero; opacity: 1;" vector-effect="non-scaling-stroke"  transform=" translate(-359.51, -336.2)" d="M 352.5 364.6 L 360.5 343.6 C 360.5 343.6 378.5 320.6 368.5 309.6 C 358.5 298.6 347.5 341.6 347.5 341.6 L 352.5 364.6 z" stroke-linecap="round" />
</g>
<g transform="matrix(0.8 0 0 0.8 226.78 202.27)" id="PXCkgfxDBNKsbBUfw9Z-a"  >
<path style="stroke: none; stroke-width: 1; stroke-dasharray: none; stroke-linecap: butt; stroke-dashoffset: 0; stroke-linejoin: miter; stroke-miterlimit: 4; fill: rgb(160,97,106); fill-rule: nonzero; opacity: 1;" vector-effect="non-scaling-stroke"  transform=" translate(-281.07, -339.6)" d="M 260.2 361.3 L 277.7 347.1 C 277.7 347.1 304.8 336.20000000000005 301.7 321.70000000000005 C 298.59999999999997 307.20000000000005 267.5 338.80000000000007 267.5 338.80000000000007 L 260.2 361.3 z" stroke-linecap="round" />
</g>
<g transform="matrix(0.8 0 0 0.8 186.39 183.1)" id="s-Sf1RXt4NBp2gstS5FQj"  >
<path style="stroke: none; stroke-width: 1; stroke-dasharray: none; stroke-linecap: butt; stroke-dashoffset: 0; stroke-linejoin: miter; stroke-miterlimit: 4; fill: rgb(0,0,0); fill-rule: nonzero; opacity: 0.1;" vector-effect="non-scaling-stroke"  transform=" translate(-230.82, -315.75)" d="M 217 260.1 L 216 260.1 C 216 260.1 200.5 241.60000000000002 197.5 266.6 C 194.5 291.6 184.5 374.6 210.5 377.6 C 236.5 380.6 255 365.1 255 365.1 C 255 365.1 274 336.1 267 336.1 C 263.6 336.1 254.4 334.6 246 335.1 C 237 335.70000000000005 229 338.20000000000005 229.5 335.6 C 230.5 330.6 245 267.1 217 260.1 z" stroke-linecap="round" />
</g>
<g transform="matrix(0.8 0 0 0.8 184.81 177.25)" id="aEvm76NpYLa1XWKrttY8n"  >
<path style="stroke: none; stroke-width: 1; stroke-dasharray: none; stroke-linecap: butt; stroke-dashoffset: 0; stroke-linejoin: miter; stroke-miterlimit: 4; fill: rgb(255,238,173); fill-rule: nonzero; opacity: 1;" vector-effect="non-scaling-stroke"  transform=" translate(-228.85, -308.47)" d="M 215.5 240.6 L 211.5 238.6 C 211.5 238.6 195.5 241.6 192.5 266.6 C 189.5 291.6 179.5 374.6 205.5 377.6 C 231.5 380.6 266.5 373.6 266.5 373.6 C 266.5 373.6 273.5 335.6 266.5 335.6 C 259.5 335.6 223.5 340.6 224.5 335.6 C 225.5 330.6 243.5 247.6 215.5 240.6 z" stroke-linecap="round" />
</g>
<g transform="matrix(0.8 0 0 0.8 279.77 213.97)" id="VAvqkAin0NqH_NuPGfqkT"  >
<path style="stroke: none; stroke-width: 1; stroke-dasharray: none; stroke-linecap: butt; stroke-dashoffset: 0; stroke-linejoin: miter; stroke-miterlimit: 4; fill: rgb(255,238,173); fill-rule: nonzero; opacity: 1;" vector-effect="non-scaling-stroke"  transform=" translate(-347, -354.15)" d="M 338 353.1 L 349 336.20000000000005 L 356 364.1 L 338 372.1 z" stroke-linecap="round" />
</g>
</svg>